PathFileType	4	(X/Y/Z)	C:\Users\Caesar\Desktop\±œ“µ…Ëº∆\Lee-Son's Toolbox\Example Data\Static.trc	Maker trajectories (.TRC) by Lee-Son ToolBox
DataRate	CameraRate	NumFrames	NumMarkers	Units	OrigDataRate	OrigDataStarFrame	OrigNumFrames
100	100	9	42	mm	100	1	264
Frame#	Time	CLAV			C7			RACR			LACR			RASH			RPSH			RUA3			RLEL			RMEL			RFAsuperior			RFAradius			RFAulna			LASH			LPSH			LUA1			LLEL			LMEL			LFAsuperior			LFAradius			LFAulna			LASI			RASI			LPSI			RPSI			RTH3			RLFC			RMFC			RTB3			RLMAL			RMMAL			RCAL			RMT5			RTOE			LTH1			LLFC			LMFC			LTB1			LLMAL			LMMAL			LCAL			LMT5			LTOE		
		X1	Y1	Z1	X2	Y2	Z2	X3	Y3	Z3	X4	Y4	Z4	X5	Y5	Z5	X6	Y6	Z6	X7	Y7	Z7	X8	Y8	Z8	X9	Y9	Z9	X10	Y10	Z10	X11	Y11	Z11	X12	Y12	Z12	X13	Y13	Z13	X14	Y14	Z14	X15	Y15	Z15	X16	Y16	Z16	X17	Y17	Z17	X18	Y18	Z18	X19	Y19	Z19	X20	Y20	Z20	X21	Y21	Z21	X22	Y22	Z22	X23	Y23	Z23	X24	Y24	Z24	X25	Y25	Z25	X26	Y26	Z26	X27	Y27	Z27	X28	Y28	Z28	X29	Y29	Z29	X30	Y30	Z30	X31	Y31	Z31	X32	Y32	Z32	X33	Y33	Z33	X34	Y34	Z34	X35	Y35	Z35	X36	Y36	Z36	X37	Y37	Z37	X38	Y38	Z38	X39	Y39	Z39	X40	Y40	Z40	X41	Y41	Z41	X42	Y42	Z42

100	0.99	587.862	1419.39	200.646	567.576	1468.49	341.029	733.527	1423.26	283.708	412.038	1450.34	290.673	734.389	1380.38	225.168	717.741	1366.79	362.345	816.864	1280.48	318.518	875.507	1135.19	326.945	826.052	1108.65	280.562	904.462	1079.78	336.058	1064.62	972.905	287.028	1009.62	928.839	321.213	414.044	1412.45	229.751	401.393	1389.46	360.099	329.208	1379.65	317.231	238.969	1157.3	337.396	298.358	1144.23	288.052	203.817	1108.64	345.112	79.4799	986.706	291.207	131.301	945.855	329.613	422.172	965.648	193.288	695.767	962.261	197.495	520.361	990.132	364.662	613.066	984.038	368.28	762.113	770.149	239.587	763.552	506.797	279.176	662.358	491.37	289.822	807.002	394.418	333.806	784.171	93.1746	349.957	696.947	102.759	311.13	734.441	44.6593	411.476	825.196	27.2368	236.486	757.818	38.4957	154.848	357.941	678.881	262.427	371.876	515.715	276.448	472.072	492.625	275.06	342.361	231.655	349.955	352.666	103.268	348.966	436.875	113.592	312.075	407.535	41.1946	408.981	305.976	30.2183	241.126	364.833	39.9174	154.584
101	1	587.887	1419.39	200.512	567.608	1468.49	340.899	733.558	1423.26	283.561	412.067	1450.34	290.549	734.416	1380.38	225.024	717.78	1366.8	362.201	816.9	1280.49	318.372	875.551	1135.2	326.809	826.092	1108.66	280.432	904.51	1079.79	335.923	1064.66	972.924	286.882	1009.68	928.857	321.078	414.07	1412.45	229.628	401.425	1389.46	359.98	329.241	1379.65	317.114	239.005	1157.31	337.313	298.394	1144.23	287.97	203.852	1108.65	345.037	79.5182	986.701	291.147	131.337	945.856	329.565	422.202	965.63	193.213	695.795	962.246	197.424	520.387	990.157	364.582	613.091	984.066	368.205	762.138	770.144	239.553	763.571	506.795	279.166	662.378	491.372	289.821	807.019	394.417	333.8	784.172	93.1756	349.957	696.947	102.762	311.129	734.441	44.66	411.477	825.197	27.2367	236.486	757.819	38.4938	154.847	357.96	678.88	262.4	371.894	515.719	276.44	472.09	492.624	275.05	342.365	231.662	349.949	352.67	103.274	348.963	436.878	113.595	312.071	407.537	41.1969	408.98	305.975	30.218	241.125	364.832	39.9142	154.582
102	1.01	587.911	1419.39	200.378	567.64	1468.5	340.768	733.588	1423.27	283.415	412.095	1450.34	290.425	734.442	1380.38	224.88	717.819	1366.81	362.059	816.936	1280.49	318.227	875.594	1135.21	326.672	826.131	1108.66	280.302	904.557	1079.81	335.788	1064.71	972.943	286.737	1009.73	928.875	320.943	414.095	1412.45	229.506	401.457	1389.47	359.862	329.274	1379.65	316.997	239.041	1157.31	337.23	298.429	1144.22	287.887	203.888	1108.66	344.962	79.556	986.696	291.087	131.373	945.858	329.516	422.231	965.613	193.137	695.823	962.23	197.354	520.413	990.182	364.502	613.117	984.093	368.129	762.163	770.138	239.519	763.59	506.794	279.157	662.398	491.374	289.82	807.036	394.416	333.794	784.172	93.1766	349.957	696.947	102.765	311.128	734.44	44.6606	411.477	825.197	27.2366	236.486	757.819	38.4919	154.846	357.979	678.88	262.372	371.913	515.722	276.431	472.107	492.623	275.039	342.369	231.669	349.943	352.674	103.28	348.96	436.881	113.597	312.068	407.538	41.1993	408.979	305.974	30.2176	241.125	364.83	39.911	154.58
103	1.02	587.936	1419.39	200.245	567.671	1468.5	340.638	733.618	1423.27	283.27	412.123	1450.34	290.302	734.469	1380.38	224.736	717.857	1366.82	361.916	816.971	1280.5	318.082	875.636	1135.22	326.536	826.171	1108.67	280.173	904.604	1079.82	335.653	1064.76	972.961	286.593	1009.79	928.893	320.808	414.121	1412.45	229.383	401.489	1389.48	359.745	329.307	1379.65	316.88	239.077	1157.31	337.147	298.464	1144.22	287.805	203.923	1108.66	344.887	79.5932	986.691	291.028	131.409	945.86	329.468	422.26	965.595	193.062	695.851	962.214	197.283	520.438	990.207	364.422	613.142	984.12	368.053	762.187	770.133	239.485	763.609	506.792	279.147	662.417	491.376	289.819	807.052	394.415	333.789	784.172	93.1776	349.957	696.948	102.767	311.127	734.44	44.6612	411.477	825.198	27.2366	236.486	757.82	38.4899	154.846	357.997	678.879	262.345	371.931	515.726	276.421	472.125	492.621	275.028	342.374	231.676	349.936	352.677	103.287	348.958	436.883	113.6	312.064	407.539	41.2016	408.978	305.972	30.2173	241.124	364.829	39.9078	154.579
104	1.03	587.96	1419.39	200.111	567.702	1468.5	340.509	733.647	1423.27	283.125	412.151	1450.34	290.179	734.495	1380.39	224.593	717.894	1366.82	361.774	817.006	1280.51	317.937	875.678	1135.23	326.4	826.209	1108.67	280.044	904.65	1079.83	335.52	1064.8	972.979	286.449	1009.84	928.91	320.674	414.146	1412.44	229.261	401.521	1389.48	359.627	329.339	1379.64	316.764	239.112	1157.32	337.065	298.499	1144.22	287.723	203.958	1108.67	344.812	79.6301	986.686	290.968	131.444	945.862	329.419	422.289	965.578	192.987	695.878	962.199	197.213	520.463	990.231	364.343	613.166	984.147	367.978	762.211	770.128	239.451	763.628	506.79	279.138	662.436	491.378	289.818	807.069	394.414	333.783	784.172	93.1787	349.957	696.948	102.77	311.126	734.44	44.6619	411.477	825.199	27.2365	236.486	757.82	38.488	154.845	358.016	678.878	262.317	371.948	515.729	276.412	472.142	492.62	275.017	342.378	231.683	349.929	352.681	103.293	348.955	436.886	113.602	312.061	407.541	41.204	408.978	305.971	30.217	241.123	364.827	39.9046	154.577
105	1.04	587.984	1419.39	199.978	567.733	1468.51	340.379	733.676	1423.27	282.98	412.179	1450.34	290.056	734.52	1380.39	224.45	717.932	1366.83	361.633	817.041	1280.52	317.793	875.719	1135.24	326.265	826.248	1108.68	279.915	904.695	1079.85	335.386	1064.85	972.997	286.305	1009.89	928.927	320.54	414.171	1412.44	229.139	401.552	1389.49	359.51	329.371	1379.64	316.648	239.147	1157.32	336.983	298.533	1144.22	287.641	203.992	1108.67	344.737	79.6664	986.681	290.909	131.479	945.864	329.37	422.317	965.561	192.911	695.904	962.183	197.142	520.487	990.256	364.263	613.19	984.173	367.902	762.234	770.122	239.416	763.646	506.789	279.128	662.455	491.379	289.816	807.085	394.413	333.777	784.171	93.1798	349.957	696.948	102.772	311.125	734.44	44.6625	411.477	825.2	27.2364	236.486	757.82	38.4861	154.845	358.034	678.877	262.289	371.966	515.732	276.402	472.158	492.618	275.006	342.382	231.69	349.923	352.684	103.299	348.953	436.888	113.604	312.057	407.542	41.2063	408.977	305.97	30.2167	241.123	364.826	39.9014	154.575
106	1.05	588.007	1419.39	199.846	567.764	1468.51	340.25	733.705	1423.27	282.836	412.206	1450.34	289.934	734.545	1380.39	224.307	717.969	1366.84	361.491	817.075	1280.53	317.649	875.76	1135.26	326.13	826.286	1108.68	279.787	904.741	1079.86	335.253	1064.89	973.014	286.162	1009.94	928.943	320.406	414.195	1412.44	229.018	401.583	1389.49	359.393	329.402	1379.64	316.532	239.181	1157.33	336.9	298.567	1144.22	287.559	204.026	1108.68	344.663	79.7022	986.676	290.85	131.513	945.866	329.321	422.345	965.544	192.836	695.931	962.168	197.072	520.511	990.28	364.183	613.214	984.2	367.826	762.257	770.117	239.382	763.664	506.787	279.118	662.473	491.381	289.815	807.1	394.413	333.771	784.171	93.1809	349.957	696.948	102.775	311.124	734.439	44.6632	411.477	825.2	27.2364	236.486	757.821	38.4841	154.844	358.051	678.876	262.26	371.983	515.735	276.392	472.175	492.617	274.995	342.386	231.697	349.916	352.688	103.305	348.95	436.891	113.607	312.054	407.543	41.2087	408.976	305.969	30.2164	241.122	364.825	39.8983	154.574
107	1.06	588.03	1419.39	199.713	567.795	1468.51	340.121	733.734	1423.28	282.692	412.234	1450.34	289.812	734.57	1380.39	224.165	718.005	1366.84	361.351	817.109	1280.53	317.506	875.8	1135.27	325.996	826.323	1108.68	279.659	904.785	1079.87	335.12	1064.94	973.03	286.02	1009.99	928.959	320.273	414.219	1412.44	228.897	401.614	1389.5	359.277	329.433	1379.64	316.416	239.215	1157.33	336.818	298.601	1144.21	287.477	204.06	1108.68	344.588	79.7376	986.672	290.79	131.547	945.868	329.272	422.372	965.528	192.76	695.956	962.152	197.002	520.535	990.304	364.104	613.237	984.226	367.751	762.28	770.111	239.347	763.681	506.785	279.108	662.491	491.382	289.813	807.116	394.412	333.764	784.171	93.182	349.957	696.948	102.777	311.122	734.439	44.6638	411.477	825.201	27.2363	236.486	757.821	38.4822	154.844	358.068	678.875	262.232	372	515.738	276.381	472.191	492.615	274.983	342.39	231.704	349.909	352.691	103.312	348.947	436.894	113.609	312.05	407.545	41.211	408.975	305.968	30.2161	241.122	364.824	39.8951	154.572
108	1.07	588.054	1419.39	199.581	567.826	1468.51	339.993	733.762	1423.28	282.549	412.261	1450.34	289.69	734.595	1380.39	224.023	718.041	1366.85	361.21	817.142	1280.54	317.363	875.84	1135.28	325.862	826.36	1108.69	279.531	904.829	1079.89	334.988	1064.98	973.046	285.878	1010.04	928.974	320.14	414.243	1412.44	228.776	401.645	1389.5	359.16	329.464	1379.64	316.301	239.248	1157.34	336.736	298.633	1144.21	287.395	204.093	1108.69	344.514	79.7725	986.667	290.731	131.58	945.871	329.224	422.399	965.511	192.685	695.982	962.136	196.932	520.558	990.328	364.024	613.26	984.252	367.675	762.302	770.105	239.312	763.699	506.783	279.097	662.509	491.384	289.811	807.131	394.411	333.758	784.171	93.1832	349.957	696.949	102.78	311.121	734.438	44.6645	411.477	825.201	27.2363	236.486	757.821	38.4802	154.843	358.085	678.873	262.203	372.016	515.741	276.371	472.207	492.614	274.971	342.393	231.71	349.902	352.695	103.318	348.945	436.896	113.612	312.047	407.546	41.2133	408.974	305.967	30.2159	241.121	364.823	39.892	154.57
